<svg id="Layer_1" enable-background="new 0 0 512 512" height="512" viewBox="0 0 512 512" width="512" xmlns="http://www.w3.org/2000/svg"><path d="m209.459 419.746c-3.202 7.678-10.637 12.307-18.467 12.307-2.566 0-5.173-.496-7.689-1.546-1.563-.652-3.103-1.345-4.644-2.036l-8.407 14.428c1.129 3.157 1.748 6.556 1.748 10.101 0 16.569-13.431 30-30 30s-30-13.431-30-30c0-14.186 9.849-26.063 23.079-29.189l9.022-15.485c-15.173-11.153-28.65-24.55-39.99-39.861l-13.617 8.003c-2.572 13.956-14.794 24.532-29.494 24.532-16.569 0-30-13.431-30-30s13.431-30 30-30c3.029 0 5.952.453 8.708 1.288l14.088-8.28c-8.321-18.331-13.63-37.872-15.747-58.009h-15.694c-5.493 6.136-13.471 10-22.355 10-16.569 0-30-13.431-30-30s13.431-30 30-30c8.884 0 16.862 3.864 22.355 10h15.686c2.087-20.016 7.295-39.342 15.387-57.399l-13.961-8.134c-2.977.99-6.157 1.534-9.467 1.534-16.569 0-30-13.431-30-30s13.431-30 30-30c14.426 0 26.469 10.183 29.344 23.752l14.26 8.309c5.719-7.758 12.06-15.137 19.016-22.06 6.573-6.542 13.548-12.538 20.865-17.973l-7.955-13.534c-13.955-2.573-24.53-14.794-24.53-29.494 0-16.569 13.431-30 30-30s30 13.431 30 30c0 3.029-.453 5.952-1.288 8.708l8.244 14.027c18.248-8.263 37.794-13.575 58.044-15.687v-15.693c-6.136-5.493-10-13.471-10-22.355 0-16.569 13.431-30 30-30s30 13.431 30 30c0 8.884-3.864 16.862-10 22.355v15.715c19.883 2.114 39.228 7.355 57.334 15.472l8.2-14.074c-.99-2.977-1.534-6.158-1.534-9.468 0-16.569 13.431-30 30-30s30 13.431 30 30c0 14.426-10.183 26.469-23.752 29.344l-8.356 14.341c4.093 3.008 8.081 6.18 11.942 9.531 10.502 9.115 19.893 19.296 28.059 30.317l13.614-8.001c2.571-13.956 14.793-24.532 29.493-24.532 16.569 0 30 13.431 30 30s-13.431 30-30 30c-3.029 0-5.952-.453-8.708-1.288l-14.119 8.298c7.12 15.692 12.111 32.375 14.709 49.615.719 4.774 4.959 8.375 9.861 8.375h6.903c5.493-6.136 13.471-10 22.355-10 16.569 0 30 13.431 30 30s-13.431 30-30 30c-8.884 0-16.862-3.864-22.355-10h-6.903c-24.526 0-45.77-18.234-49.415-42.414-10.875-72.165-74.211-126.585-147.326-126.586-81.788-.001-148.629 66.529-149 148.307-.276 60.658 35.717 114.938 91.696 138.282 10.195 4.251 15.012 15.962 10.761 26.157zm47.541-182.746c-11.046 0-20 8.954-20 20s8.954 20 20 20 20-8.954 20-20-8.954-20-20-20zm0-80c-11.046 0-20 8.954-20 20s8.954 20 20 20 20-8.954 20-20-8.954-20-20-20zm0 160c-11.046 0-20 8.954-20 20s8.954 20 20 20 20-8.954 20-20-8.954-20-20-20zm49-100c0 11.046 8.954 20 20 20s20-8.954 20-20-8.954-20-20-20-20 8.954-20 20zm-118-20c-11.046 0-20 8.954-20 20s8.954 20 20 20 20-8.954 20-20-8.954-20-20-20zm0 78c-11.046 0-20 8.954-20 20s8.954 20 20 20 20-8.954 20-20-8.954-20-20-20zm184 197c-11.046 0-20 8.954-20 20s8.954 20 20 20 20-8.954 20-20-8.954-20-20-20zm133.162-27.237-96.34-146.437c-8.009-12.734-21.75-20.326-36.822-20.326s-28.813 7.592-36.822 20.326l-96.34 146.437c-.101.153-.2.308-.296.464-8.328 13.451-8.686 30.452-.934 44.368 7.698 13.82 22.229 22.405 37.922 22.405h18.47c11.046 0 20-8.954 20-20s-8.954-20-20-20h-18.47c-1.285 0-2.287-.629-2.978-1.87-.499-.896-.907-2.255-.083-3.708l96.256-146.308c.101-.153.199-.308.296-.464.678-1.095 1.681-1.65 2.979-1.65s2.301.556 2.979 1.65c.097.156.195.311.296.464l96.256 146.308c.824 1.453.416 2.813-.083 3.708-.691 1.241-1.693 1.87-2.978 1.87h-17.47c-11.046 0-20 8.954-20 20s8.954 20 20 20h17.47c15.693 0 30.225-8.585 37.922-22.405 7.752-13.916 7.394-30.917-.934-44.368-.096-.157-.195-.311-.296-.464zm-133.162-71.763c-11.046 0-20 8.954-20 20v40.889c0 11.046 8.954 20 20 20s20-8.954 20-20v-40.889c0-11.046-8.954-20-20-20z"/></svg>